<svg height="512" viewBox="0 0 64 64" width="512" xmlns="http://www.w3.org/2000/svg"><g id="man-delivery-package"><g fill="#78b9eb"><path d="m49 37-.97-2.91a6.006 6.006 0 0 1 4.97 5.91v3h-4z"/><path d="m44 59a2.006 2.006 0 0 0 2 2h-28a2.006 2.006 0 0 0 2-2v-2h24z"/><path d="m15 37v6h-4v-3a6.006 6.006 0 0 1 4.97-5.91z"/><path d="m49 52v5h-5-24-5v-5-9-6h13v8h8v-8h13v6z"/><path d="m48.03 34.09.97 2.91h-13-8-13l.97-2.91 1.03-3.09h9.01 11.98 9.01z"/><path d="m42 13-3 4h-14l-3-4z"/><path d="m32 3a10 10 0 0 1 10 10h-20a10 10 0 0 1 10-10z"/></g><path d="m28 23a1 1 0 0 0 1-1v-2a1 1 0 0 0 -2 0v2a1 1 0 0 0 1 1z" fill="#006df0"/><path d="m36 19a1 1 0 0 0 -1 1v2a1 1 0 0 0 2 0v-2a1 1 0 0 0 -1-1z" fill="#006df0"/><path d="m32 27c-1.936 0-3-.751-3-1h-2c0 1.71 2.149 3 5 3s5-1.29 5-3h-2c0 .249-1.064 1-3 1z" fill="#006df0"/><path d="m54 53.69v-13.69a6.967 6.967 0 0 0 -5.2-6.76l-.85-2.56a1.014 1.014 0 0 0 -.95-.68h-6.52a10.928 10.928 0 0 0 2.52-7h1a3.009 3.009 0 0 0 3-3v-2a3.009 3.009 0 0 0 -3-3h-1v-2a11 11 0 0 0 -22 0v2h-1a3.009 3.009 0 0 0 -3 3v2a3.009 3.009 0 0 0 3 3h1a11.03 11.03 0 0 0 2.53 7h-6.53a1.014 1.014 0 0 0 -.95.68l-.85 2.56a6.967 6.967 0 0 0 -5.2 6.76v13.69a5.977 5.977 0 0 0 -1 3.31v2a3.009 3.009 0 0 0 3 3h40a3.009 3.009 0 0 0 3-3v-2a5.977 5.977 0 0 0 -1-3.31zm-11-36.69h1a1 1 0 0 1 1 1v2a1 1 0 0 1 -1 1h-1zm-22 4h-1a1 1 0 0 1 -1-1v-2a1 1 0 0 1 1-1h1zm31 19v2h-2v-5a1.185 1.185 0 0 0 -.05-.32l-.31-.92a4.993 4.993 0 0 1 2.36 4.24zm0 4v7.81a5.985 5.985 0 0 0 -2-.72v-7.09zm-20-40a9.016 9.016 0 0 1 8.94 8h-17.88a9.016 9.016 0 0 1 8.94-8zm8 10-1.5 2h-13l-1.5-2zm-17 9v-7l1.2 1.6a1.014 1.014 0 0 0 .8.4h14a1.014 1.014 0 0 0 .8-.4l1.2-1.6v7a8.942 8.942 0 0 1 -2.64 6.36 7.548 7.548 0 0 1 -.74.64h-11.25a9.039 9.039 0 0 1 -3.37-7zm-5.28 9h28.56l1.33 4h-31.22zm17.28 6v6h-6v-6zm-23 2a4.993 4.993 0 0 1 2.36-4.24l-.31.92a1.185 1.185 0 0 0 -.05.32v5h-2zm0 4h2v7.09a5.985 5.985 0 0 0 -2 .72zm7 15a1 1 0 0 1 -1 1h-6a1 1 0 0 1 -1-1v-2a4 4 0 0 1 3-3.87v3.87a1 1 0 0 0 1 1h4zm1.82 1a3 3 0 0 0 .18-1v-1h22v1a3 3 0 0 0 .18 1zm-4.82-4v-18h11v7a1 1 0 0 0 1 1h8a1 1 0 0 0 1-1v-7h11v18zm37 3a1 1 0 0 1 -1 1h-6a1 1 0 0 1 -1-1v-1h4a1 1 0 0 0 1-1v-3.87a4 4 0 0 1 3 3.87z" fill="#006df0"/></g></svg>